<?xml version="1.0" encoding="UTF-8" standalone="no"?>
<!DOCTYPE svg PUBLIC "-//W3C//DTD SVG 1.1//EN" "http://www.w3.org/Graphics/SVG/1.1/DTD/svg11.dtd">
<svg xmlns="http://www.w3.org/2000/svg" version="1.1" viewBox="0.00 0.00 106.00 120.00">
<g stroke-width="2.00" fill="none" stroke-linecap="butt">
<path stroke="#3e5370" vector-effect="non-scaling-stroke" d="
  M 72.34 35.84
  A 0.32 0.32 0.0 0 1 72.50 36.12
  L 72.50 68.45
  A 0.32 0.32 0.0 0 0 72.98 68.73
  L 83.36 62.70
  A 0.32 0.32 0.0 0 0 83.52 62.43
  L 83.49 29.72
  A 0.32 0.32 0.0 0 0 83.33 29.45
  L 55.10 13.13
  A 0.32 0.32 0.0 0 0 54.78 13.13
  L 44.24 19.16
  A 0.32 0.32 0.0 0 0 44.24 19.72
  L 72.34 35.84"
/>
<path stroke="#3e5370" vector-effect="non-scaling-stroke" d="
  M 40.62 34.12
  A 0.36 0.36 0.0 0 1 40.98 34.12
  L 68.96 50.33
  A 0.36 0.36 0.0 0 0 69.50 50.02
  L 69.50 38.04
  A 0.36 0.36 0.0 0 0 69.32 37.73
  L 40.93 21.37
  A 0.36 0.36 0.0 0 0 40.57 21.37
  L 12.18 37.68
  A 0.36 0.36 0.0 0 0 12.00 37.99
  L 12.01 49.93
  A 0.36 0.36 0.0 0 0 12.55 50.24
  L 40.62 34.12"
/>
<path stroke="#3e5370" vector-effect="non-scaling-stroke" d="
  M 86.50 64.37
  A 0.57 0.57 0.0 0 1 86.21 64.86
  L 58.67 80.70
  A 0.57 0.57 0.0 0 0 58.68 81.69
  L 68.68 87.39
  A 0.57 0.57 0.0 0 0 69.24 87.39
  L 97.20 71.37
  A 0.57 0.57 0.0 0 0 97.49 70.88
  L 97.53 38.26
  A 0.57 0.57 0.0 0 0 97.25 37.76
  L 87.36 32.02
  A 0.57 0.57 0.0 0 0 86.50 32.51
  L 86.50 64.37"
/>
<path stroke="#3e5370" vector-effect="non-scaling-stroke" d="
  M 22.95 60.71
  A 0.34 0.34 0.0 0 1 23.12 60.41
  L 51.29 44.18
  A 0.34 0.34 0.0 0 0 51.29 43.60
  L 40.98 37.66
  A 0.34 0.34 0.0 0 0 40.64 37.66
  L 12.17 53.93
  A 0.34 0.34 0.0 0 0 12.00 54.23
  L 12.00 86.94
  A 0.34 0.34 0.0 0 0 12.17 87.24
  L 22.61 93.18
  A 0.34 0.34 0.0 0 0 23.12 92.88
  L 22.95 60.71"
/>
<path stroke="#3e5370" vector-effect="non-scaling-stroke" d="
  M 37.41 89.12
  A 0.34 0.34 0.0 0 1 37.24 88.82
  L 37.28 56.58
  A 0.34 0.34 0.0 0 0 36.77 56.28
  L 26.42 62.23
  A 0.34 0.34 0.0 0 0 26.25 62.53
  L 26.25 95.23
  A 0.34 0.34 0.0 0 0 26.42 95.53
  L 54.80 111.90
  A 0.34 0.34 0.0 0 0 55.14 111.90
  L 65.56 105.83
  A 0.34 0.34 0.0 0 0 65.56 105.24
  L 37.41 89.12"
/>
<path stroke="#3e5370" vector-effect="non-scaling-stroke" d="
  M 97.47 75.19
  A 0.30 0.30 0.0 0 0 97.02 74.94
  L 69.15 90.96
  A 0.30 0.30 0.0 0 1 68.85 90.96
  L 40.70 74.83
  A 0.30 0.30 0.0 0 0 40.25 75.09
  L 40.25 87.12
  A 0.30 0.30 0.0 0 0 40.40 87.38
  L 68.78 103.79
  A 0.30 0.30 0.0 0 0 69.08 103.79
  L 97.40 87.45
  A 0.30 0.30 0.0 0 0 97.55 87.19
  L 97.47 75.19"
/>
</g>
<path fill="#242424" d="
  M 0.00 0.00
  L 106.00 0.00
  L 106.00 120.00
  L 0.00 120.00
  L 0.00 0.00
  Z
  M 72.34 35.84
  A 0.32 0.32 0.0 0 1 72.50 36.12
  L 72.50 68.45
  A 0.32 0.32 0.0 0 0 72.98 68.73
  L 83.36 62.70
  A 0.32 0.32 0.0 0 0 83.52 62.43
  L 83.49 29.72
  A 0.32 0.32 0.0 0 0 83.33 29.45
  L 55.10 13.13
  A 0.32 0.32 0.0 0 0 54.78 13.13
  L 44.24 19.16
  A 0.32 0.32 0.0 0 0 44.24 19.72
  L 72.34 35.84
  Z
  M 40.62 34.12
  A 0.36 0.36 0.0 0 1 40.98 34.12
  L 68.96 50.33
  A 0.36 0.36 0.0 0 0 69.50 50.02
  L 69.50 38.04
  A 0.36 0.36 0.0 0 0 69.32 37.73
  L 40.93 21.37
  A 0.36 0.36 0.0 0 0 40.57 21.37
  L 12.18 37.68
  A 0.36 0.36 0.0 0 0 12.00 37.99
  L 12.01 49.93
  A 0.36 0.36 0.0 0 0 12.55 50.24
  L 40.62 34.12
  Z
  M 86.50 64.37
  A 0.57 0.57 0.0 0 1 86.21 64.86
  L 58.67 80.70
  A 0.57 0.57 0.0 0 0 58.68 81.69
  L 68.68 87.39
  A 0.57 0.57 0.0 0 0 69.24 87.39
  L 97.20 71.37
  A 0.57 0.57 0.0 0 0 97.49 70.88
  L 97.53 38.26
  A 0.57 0.57 0.0 0 0 97.25 37.76
  L 87.36 32.02
  A 0.57 0.57 0.0 0 0 86.50 32.51
  L 86.50 64.37
  Z
  M 22.95 60.71
  A 0.34 0.34 0.0 0 1 23.12 60.41
  L 51.29 44.18
  A 0.34 0.34 0.0 0 0 51.29 43.60
  L 40.98 37.66
  A 0.34 0.34 0.0 0 0 40.64 37.66
  L 12.17 53.93
  A 0.34 0.34 0.0 0 0 12.00 54.23
  L 12.00 86.94
  A 0.34 0.34 0.0 0 0 12.17 87.24
  L 22.61 93.18
  A 0.34 0.34 0.0 0 0 23.12 92.88
  L 22.95 60.71
  Z
  M 37.41 89.12
  A 0.34 0.34 0.0 0 1 37.24 88.82
  L 37.28 56.58
  A 0.34 0.34 0.0 0 0 36.77 56.28
  L 26.42 62.23
  A 0.34 0.34 0.0 0 0 26.25 62.53
  L 26.25 95.23
  A 0.34 0.34 0.0 0 0 26.42 95.53
  L 54.80 111.90
  A 0.34 0.34 0.0 0 0 55.14 111.90
  L 65.56 105.83
  A 0.34 0.34 0.0 0 0 65.56 105.24
  L 37.41 89.12
  Z
  M 97.47 75.19
  A 0.30 0.30 0.0 0 0 97.02 74.94
  L 69.15 90.96
  A 0.30 0.30 0.0 0 1 68.85 90.96
  L 40.70 74.83
  A 0.30 0.30 0.0 0 0 40.25 75.09
  L 40.25 87.12
  A 0.30 0.30 0.0 0 0 40.40 87.38
  L 68.78 103.79
  A 0.30 0.30 0.0 0 0 69.08 103.79
  L 97.40 87.45
  A 0.30 0.30 0.0 0 0 97.55 87.19
  L 97.47 75.19
  Z"
/>
<g fill="#5782bb">
<path d="
  M 72.34 35.84
  L 44.24 19.72
  A 0.32 0.32 0.0 0 1 44.24 19.16
  L 54.78 13.13
  A 0.32 0.32 0.0 0 1 55.10 13.13
  L 83.33 29.45
  A 0.32 0.32 0.0 0 1 83.49 29.72
  L 83.52 62.43
  A 0.32 0.32 0.0 0 1 83.36 62.70
  L 72.98 68.73
  A 0.32 0.32 0.0 0 1 72.50 68.45
  L 72.50 36.12
  A 0.32 0.32 0.0 0 0 72.34 35.84
  Z"
/>
<path d="
  M 40.62 34.12
  L 12.55 50.24
  A 0.36 0.36 0.0 0 1 12.01 49.93
  L 12.00 37.99
  A 0.36 0.36 0.0 0 1 12.18 37.68
  L 40.57 21.37
  A 0.36 0.36 0.0 0 1 40.93 21.37
  L 69.32 37.73
  A 0.36 0.36 0.0 0 1 69.50 38.04
  L 69.50 50.02
  A 0.36 0.36 0.0 0 1 68.96 50.33
  L 40.98 34.12
  A 0.36 0.36 0.0 0 0 40.62 34.12
  Z"
/>
<path d="
  M 86.50 64.37
  L 86.50 32.51
  A 0.57 0.57 0.0 0 1 87.36 32.02
  L 97.25 37.76
  A 0.57 0.57 0.0 0 1 97.53 38.26
  L 97.49 70.88
  A 0.57 0.57 0.0 0 1 97.20 71.37
  L 69.24 87.39
  A 0.57 0.57 0.0 0 1 68.68 87.39
  L 58.68 81.69
  A 0.57 0.57 0.0 0 1 58.67 80.70
  L 86.21 64.86
  A 0.57 0.57 0.0 0 0 86.50 64.37
  Z"
/>
<path d="
  M 22.95 60.71
  L 23.12 92.88
  A 0.34 0.34 0.0 0 1 22.61 93.18
  L 12.17 87.24
  A 0.34 0.34 0.0 0 1 12.00 86.94
  L 12.00 54.23
  A 0.34 0.34 0.0 0 1 12.17 53.93
  L 40.64 37.66
  A 0.34 0.34 0.0 0 1 40.98 37.66
  L 51.29 43.60
  A 0.34 0.34 0.0 0 1 51.29 44.18
  L 23.12 60.41
  A 0.34 0.34 0.0 0 0 22.95 60.71
  Z"
/>
<path d="
  M 37.41 89.12
  L 65.56 105.24
  A 0.34 0.34 0.0 0 1 65.56 105.83
  L 55.14 111.90
  A 0.34 0.34 0.0 0 1 54.80 111.90
  L 26.42 95.53
  A 0.34 0.34 0.0 0 1 26.25 95.23
  L 26.25 62.53
  A 0.34 0.34 0.0 0 1 26.42 62.23
  L 36.77 56.28
  A 0.34 0.34 0.0 0 1 37.28 56.58
  L 37.24 88.82
  A 0.34 0.34 0.0 0 0 37.41 89.12
  Z"
/>
<path d="
  M 97.47 75.19
  L 97.55 87.19
  A 0.30 0.30 0.0 0 1 97.40 87.45
  L 69.08 103.79
  A 0.30 0.30 0.0 0 1 68.78 103.79
  L 40.40 87.38
  A 0.30 0.30 0.0 0 1 40.25 87.12
  L 40.25 75.09
  A 0.30 0.30 0.0 0 1 40.70 74.83
  L 68.85 90.96
  A 0.30 0.30 0.0 0 0 69.15 90.96
  L 97.02 74.94
  A 0.30 0.30 0.0 0 1 97.47 75.19
  Z"
/>
</g>
</svg>
